<!-- icon666.com - MILLIONS vector ICONS FREE --><svg id="Layer_1" enable-background="new 0 0 100 100" viewBox="0 0 100 100" xmlns="http://www.w3.org/2000/svg"><g><path d="m43.932 74.467c-.295 0-.59-.087-.844-.26l-33.755-22.967c-.41-.279-.656-.743-.656-1.24s.246-.961.656-1.24l33.755-22.967c.459-.313 1.054-.346 1.545-.085.491.26.798.77.798 1.326v16.232h44.391c.829 0 1.5.671 1.5 1.5v10.469c0 .829-.671 1.5-1.5 1.5h-44.39v16.232c0 .556-.307 1.066-.798 1.326-.22.116-.462.174-.702.174zm-31.088-24.467 29.588 20.132v-14.898c0-.829.671-1.5 1.5-1.5h44.391v-7.469h-44.391c-.829 0-1.5-.671-1.5-1.5v-14.897z"></path></g></svg>